<svg version="1" xmlns="http://www.w3.org/2000/svg" width="682.667" height="682.667" viewBox="0 0 512.000000 512.000000"><path d="M232 17.1c-40.8 5-72.2 16-106 37.3-3.6 2.2-6.7 4.3-7 4.6-.3.3-3.2 2.5-6.5 4.9-12.9 9.5-29.1 24.7-39 36.6-2.8 3.3-5.2 6.2-5.5 6.5-4 3.9-18.6 26.3-24.3 37.3-12.3 23.6-22.5 55-25.2 77.7-.4 3-1 8.2-1.5 11.5-1.3 9.7-.4 44.8 1.4 56.5 5.7 36.6 18.9 70.9 38 98.9 2.8 4 5.6 8.1 6.1 9 .6.9 1.2 1.8 1.5 2.1.3.3 2.1 2.5 4 5 5 6.6 7.4 9.2 18.5 20.4 28.3 28.6 62.7 49 102.5 61 4.7 1.4 9.7 2.7 11.3 3 1.5.3 3.7.8 5 1.2 1.2.4 2.9.8 3.7.9.8.1 3.1.4 5 .8 21.5 4.1 60.4 4.4 80.3.6 2.8-.5 6.6-1.2 8.2-1.5 28.9-5 65.5-20.7 91-38.9 40.6-29 70.8-68.1 87.3-113 11.3-30.7 15.1-53.4 14.6-86.5-.2-11.3-.5-22.1-.8-24-.3-1.9-.8-5.1-1.1-7-1.1-8-1.7-11-4.1-21-3.1-13.5-7.5-26.9-12.9-39.5-4.7-10.8-11.9-25-14.1-27.6-.8-.8-1.4-1.9-1.4-2.3 0-1.8-16.7-24.8-24-33-4.5-5.1-20.7-21.3-24.6-24.6-23.1-19.6-52.2-36.2-79.9-45.5-11.8-4-32-8.8-42-10.1-2.7-.3-6.1-.8-7.5-1.1-4.4-.8-44.2-1-51-.2zm50 32.4c1.9.3 6.2 1.1 9.5 1.6 24.7 4.2 52.6 14.8 74 28.2 53.3 33.3 88.6 88.4 97.1 151.7 1 7.4 1.2 39 .3 46-.4 3.6-1.1 8.5-1.4 10.9-4.6 35.5-24.3 77.1-50 106-32.5 36.4-78.3 61.4-124.5 67.7-2.5.3-5.4.8-6.5 1.1-1.1.3-10.8.6-21.5.7-27.4.4-49.7-3.2-74.2-12-7.4-2.7-25.9-11.4-33.3-15.6-19.1-11.1-42.1-30.7-56-47.8-2-2.5-4.3-5.3-5.2-6.4-.8-1-4.7-6.6-8.5-12.5-15.1-22.9-26.6-52.2-31.2-80.1-2.7-16.1-2.8-53.2-.1-66 .3-1.4.7-3.6 1-5 12.3-64.4 53.9-119.3 112-148 22.4-11.1 41.9-17 67.5-20.4 9.4-1.3 43.8-1.4 51-.1z"/><path d="M170.5 161.4c-16.4 4.1-29 16.9-33 33.2-1.4 6.1-1.6 13.6-1.3 63.9.2 31.3.7 58.2 1.1 59.8 2.7 10.3 11.6 21.9 20.6 27 10.2 5.8 10.8 5.9 37.2 6.4 28.1.6 29.7.2 35.1-7.1 2.6-3.6 2.9-4.8 2.6-9.3-.3-3.7-1.3-6.2-3.3-8.8-4.5-6-6.8-6.5-30.2-6.5s-26-.6-29.5-7.1c-1.7-3.2-1.8-6.8-1.8-57.4.1-50.6.2-54.2 1.9-56.8 3.9-6 4.6-6.2 29.8-6.7 21.4-.5 23.4-.7 25.9-2.6 4.8-3.5 6.6-6.9 7-12.5.3-7.3-2.3-11.7-9.2-15.6-3-1.7-46.2-1.6-52.9.1zM262.2 161.6c-7.2 3.7-10.5 11.9-8.2 20.4.7 2.5 1.3 5.2 1.5 6 .2.8.8 3.3 1.3 5.5.6 2.2 1.3 5.1 1.6 6.5.2 1.4 3.8 16.2 8 33 7.1 29.2 11.4 46.8 12.1 50l4 16c4 15.8 4.4 17.3 5.1 21 .3 1.4.9 4.1 1.4 6 .5 1.9 1.6 6.6 2.5 10.3 1.7 6.8 4.8 11.7 8.8 13.9 3.6 1.9 10.5 2 14.3.2 5.4-2.6 7.8-6.7 12.7-21.9 15.8-48.9 28.8-89 35.2-108.5 14-42.6 13.8-41.9 13.1-46.3-2-12-15.9-17.6-25.3-10.1-4.1 3.3-5.7 7.6-27.8 75.9-12.3 37.9-12.2 37.9-12.8 35.9-.4-1.1-1.6-6-2.7-10.9-1.2-5-5.5-22.7-9.6-39.5s-8.2-33.4-9-37l-2-8c-.2-.8-.8-3.5-1.4-5.9-1.4-5.9-2.5-7.6-6.4-10.6-4.5-3.4-11.8-4.2-16.4-1.9z"/></svg>